<svg viewBox="0 0 220 42" xmlns="http://www.w3.org/2000/svg">
  <g transform="matrix(.2466 0 0 .24644 0 4)">
    <path d="M47.88.33a9.39 9.39 0 00-6.44 5.93c-.36.96-.4 1.52-.43 6.38-.04 4.64 0 5.5.32 6.66a8.58 8.58 0 002.54 4.3l.98.94v14.55l-.63.91-1.82 2.67c-.67.97-1.26 1.84-1.35 1.95-.13.19-3.44 5-7.91 11.55-1.17 1.73-2.54 3.7-3.05 4.42-.48.7-2.57 3.77-4.65 6.77l-9.86 14.39-9.04 13.18-3.06 4.45c-.8.97-2.84 5.22-2.84 5.93 0 .18-.08.46-.17.63-.5.94-.63 5.2-.24 7.46 1.19 7.03 6.3 12.86 13.5 15.35 1.35.46 1.66.56 2.6.7l1.57.28c1.08.17 93.98.15 94.48-.01.15-.06.62-.17 1.02-.25.41-.07 1.41-.35 2.23-.6a20.59 20.59 0 0012.1-10.09c.62-1.17 1.5-3.71 1.64-4.68.07-.42.18-1.11.28-1.5.27-1.24.05-4.92-.38-6.6-.92-3.53-1.13-3.89-9.05-15.43-2.79-4.03-5.13-7.47-5.24-7.61-.11-.15-.87-1.28-1.73-2.51l-3.17-4.64a21190.9 21190.9 0 00-23.35-34.03l-1.84-2.67V24.45l.74-.63a9.75 9.75 0 002.92-4.85c.05-.3.13-2.88.15-5.73.05-5.67-.04-6.35-.97-8.25-.28-.55-1-1.54-1.61-2.15A9.32 9.32 0 0081.9.35C80.83.02 79.97 0 64.88 0 50.2 0 48.9.04 47.88.33zm33.17 4.89a4.79 4.79 0 012.12 2c.31.6.35 1.1.35 5.75 0 4.44-.04 5.2-.32 5.78a5.1 5.1 0 01-2.15 2.15c-1.4.82-1.34.45-1.34 10.45 0 7.56.04 9 .28 9.47.15.3.93 1.48 1.73 2.63.8 1.15 2.08 3.01 2.84 4.14 1.37 2.03 4.08 5.98 5.36 7.82l2.4 3.53 1.9 2.76c.1.1 1.03 1.43 2.07 2.97 1.04 1.52 2.32 3.42 2.86 4.18a667.21 667.21 0 015.45 7.98c.06.06 1.12 1.6 2.38 3.43a870.3 870.3 0 004.38 6.4c1.15 1.7 2.82 4.11 3.7 5.4.87 1.27 2.91 4.28 4.56 6.67 3.16 4.6 4.14 6.35 4.59 8.23.46 1.98.46 4.66-.02 6.72-.4 1.72-1.8 4.54-2.8 5.58l-.67.75a15.94 15.94 0 01-6.63 4.23c-2.52.74-1.69.72-48.58.74-41.45.02-46.76-.02-48.43-.35a16.34 16.34 0 01-7.68-4.2 13.9 13.9 0 01-4.22-9.76 13.2 13.2 0 012.27-8.02c.48-.78.95-1.5 1.04-1.6l3.84-5.56c2.02-2.97 4.12-6.04 4.68-6.82l8.04-11.75c1.46-2.15 3.38-4.94 4.27-6.22l7.07-10.3 8.95-13.03c1.9-2.78 3.74-5.5 4.08-6.03l.6-.97v-8.89c0-9.9.01-9.76-1.23-10.43a5.19 5.19 0 01-2.29-2.32c-.33-.74-.37-1.26-.38-5.44 0-2.62.07-4.9.18-5.3a4.14 4.14 0 013.34-3c.35-.05 7.43-.09 15.69-.09 13.38.02 15.1.06 15.72.32z" fill="#006476"/>
    <path d="M59.35 57.93l.04 3.4 3.38.02c2.28 0 3.4-.06 3.45-.19.03-.1.07-1.65.09-3.41v-3.2h-7.02l.06 3.38zM73.44 68.14l.05 5.44h11.04V62.72H73.4l.04 5.42zM49.36 78.44c0 3.57-.02 6.6-.05 6.74-.06.26-.95.28-7.17.28h-7.09l-2.58 3.8c-10.86 16.12-13.01 19.42-13.05 20-.05.82.5 1.74 1.28 2.13.6.32 3.08.34 44.1.34 48.86 0 44.43.13 45.17-1.4.46-.94.46-1.39.02-2.17-.4-.7-17.62-26.5-17.88-26.78-.1-.11-4.94-.19-13.75-.19H64.77l-.02-4.45-.05-4.6c0-.08-3.48-.14-7.69-.14h-7.67l.02 6.44zm30.8 15.62c.02 2.6-.02 4.77-.08 4.84-.05.07-2.3.13-5 .13l-4.93-.02-.02-4.88v-4.86l5.02.03 5 .06v4.7zm-16.13 7.8c0 1.46-.04 2.72-.1 2.8-.05.07-1.31.13-2.82.13-2.32 0-2.76-.04-2.84-.3-.03-.15-.05-1.43-.03-2.84l.01-2.55 2.9.04 2.88.06v2.65z" fill="#006476"/>
  </g>
  <path d="M45.26 31.66h-2.69V9.26h2.7v22.4zm7.74 0h-2.52V16.01h2.46v2.66h.45a5.3 5.3 0 011.74-2.03c.82-.6 2.03-.92 3.63-.92 1.18 0 2.23.25 3.16.74.93.5 1.67 1.22 2.22 2.18a7 7 0 01.83 3.55v9.47h-2.53v-9.28c0-1.56-.38-2.69-1.16-3.39a4.53 4.53 0 00-3.16-1.06 4.9 4.9 0 00-3.69 1.47c-.95 1-1.43 2.45-1.43 4.4v7.86zm23.4.45a8.57 8.57 0 01-4.91-1.35c-1.34-.89-2.14-2.3-2.42-4.25l2.4-.55c.17 1.03.49 1.84.96 2.42.47.6 1.05 1 1.75 1.25.69.25 1.43.37 2.22.37a4.8 4.8 0 002.78-.7 2.18 2.18 0 001.03-1.9c0-.8-.33-1.37-.98-1.7-.65-.33-1.54-.6-2.67-.82l-1.31-.23c-1.01-.16-1.93-.43-2.75-.8a5.03 5.03 0 01-2-1.47 3.67 3.67 0 01-.72-2.34c0-1.4.54-2.5 1.63-3.29a7.17 7.17 0 014.32-1.19c1.76 0 3.2.4 4.3 1.2 1.1.8 1.8 1.93 2.13 3.38l-2.37.61c-.2-1.13-.65-1.93-1.37-2.39a5 5 0 00-2.7-.68 4.7 4.7 0 00-2.52.6c-.62.39-.93.97-.93 1.73 0 .75.29 1.3.88 1.65a6.8 6.8 0 002.35.78l1.32.23c1.1.2 2.1.46 2.99.78.88.34 1.59.81 2.1 1.43.53.62.79 1.43.79 2.43 0 1.54-.57 2.72-1.71 3.55-1.14.84-2.67 1.25-4.6 1.25zm13.08-.45h-2.52V16.01h2.52v15.65zm-1.24-18.08c-.56 0-1.03-.18-1.4-.54a1.85 1.85 0 01-.56-1.38c0-.57.19-1.04.56-1.4.37-.37.84-.55 1.4-.55a1.86 1.86 0 011.92 1.95 1.88 1.88 0 01-1.92 1.92zm5.79 10.34v-.45c0-1.64.33-3.05.99-4.23a7 7 0 012.69-2.72 7.38 7.38 0 013.7-.96c1.65 0 2.91.32 3.8.95a6.44 6.44 0 011.97 2.1h.45V16h2.4v19.3c0 .86-.24 1.53-.71 2.01-.47.5-1.15.74-2.04.74H96.65v-2.24h9.95c.64 0 .96-.32.96-.96v-5.95h-.44a5.42 5.42 0 01-2.92 2.48 7.8 7.8 0 01-2.78.43 7.38 7.38 0 01-3.71-.96 6.95 6.95 0 01-2.7-2.74 8.47 8.47 0 01-.98-4.2zm8.06 5.66a5.3 5.3 0 003.95-1.54 5.73 5.73 0 001.52-4.22v-.26c0-1.8-.5-3.22-1.52-4.24a5.34 5.34 0 00-3.95-1.52c-1.6 0-2.92.51-3.95 1.52-1.03 1.02-1.55 2.43-1.55 4.24v.26c0 1.8.52 3.2 1.55 4.22a5.37 5.37 0 003.95 1.54zm15.77 2.08h-2.52V9.26h2.52v9.25h.45c.21-.47.54-.91.98-1.33.43-.4 1-.76 1.69-1.04.7-.28 1.57-.42 2.64-.42a6.5 6.5 0 013.16.76c.93.5 1.67 1.23 2.22 2.17.55.96.83 2.14.83 3.54v9.47h-2.53v-9.28c0-1.56-.39-2.69-1.16-3.39a4.53 4.53 0 00-3.16-1.06 4.9 4.9 0 00-3.69 1.47c-.95 1-1.43 2.45-1.43 4.4v7.86zm26.57 0h-4.16c-.9 0-1.6-.24-2.07-.74a2.74 2.74 0 01-.72-2v-10.7h-4.7v-2.2h4.7v-5.58H140v5.57h5.12v2.21H140v10.3c0 .64.3.96.93.96h3.49v2.18zm18.72 0h-14.02V9.26h2.69v19.97h11.33v2.43zm8.35.45c-1.1 0-2.09-.19-2.98-.58-.9-.38-1.6-.93-2.11-1.66a4.5 4.5 0 01-.77-2.66c0-1.06.25-1.94.77-2.64a4.71 4.71 0 012.1-1.57c.9-.34 1.9-.52 3.02-.52h5.28v-1.16a3.5 3.5 0 00-.98-2.62c-.65-.64-1.61-.96-2.9-.96-1.25 0-2.24.3-2.94.91-.7.61-1.18 1.43-1.44 2.45l-2.37-.77a7.2 7.2 0 011.22-2.38 6.02 6.02 0 012.22-1.73 7.8 7.8 0 013.35-.66c2 0 3.56.52 4.67 1.56 1.1 1.04 1.66 2.5 1.66 4.36v7.08c0 .64.3.96.9.96h1.44v2.14h-2.21c-.7 0-1.27-.2-1.7-.59-.42-.39-.63-.92-.63-1.59v-.16h-.4c-.23.41-.54.83-.93 1.27-.4.44-.94.8-1.62 1.1a6.9 6.9 0 01-2.65.42zm.28-2.18c1.49 0 2.7-.44 3.64-1.33a4.88 4.88 0 001.39-3.72v-.36h-5.2c-1 0-1.82.22-2.47.66-.65.44-.97 1.1-.97 1.97 0 .88.33 1.56 1 2.05a4.3 4.3 0 002.6.73zm21.98 2.18a6.65 6.65 0 01-3.78-.93 5.87 5.87 0 01-1.97-2.1h-.45v2.58h-2.47V9.26h2.53v9.22h.44c.26-.49.63-.96 1.1-1.4.46-.43 1.08-.79 1.84-1.08.75-.29 1.68-.44 2.76-.44a7.1 7.1 0 016.4 3.76c.66 1.21 1 2.65 1 4.31v.41c0 1.67-.34 3.11-1.01 4.32a7.04 7.04 0 01-6.39 3.75zm-.66-2.24c1.62 0 2.93-.51 3.94-1.55 1.02-1.04 1.53-2.48 1.53-4.34v-.29c0-1.85-.51-3.3-1.53-4.33a5.27 5.27 0 00-3.94-1.56c-1.6 0-2.92.52-3.97 1.56-1.03 1.04-1.54 2.48-1.54 4.33v.3c0 1.85.51 3.3 1.54 4.33a5.39 5.39 0 003.97 1.55zm18.9 2.24a8.58 8.58 0 01-4.9-1.35c-1.34-.89-2.15-2.3-2.43-4.25l2.4-.55c.18 1.03.5 1.84.96 2.42.47.6 1.06 1 1.75 1.25.7.25 1.44.37 2.22.37a4.8 4.8 0 002.78-.7 2.18 2.18 0 001.03-1.9c0-.8-.32-1.37-.98-1.7-.65-.33-1.54-.6-2.67-.82l-1.3-.23c-1.02-.16-1.93-.43-2.76-.8a5.04 5.04 0 01-1.99-1.47 3.68 3.68 0 01-.73-2.34c0-1.4.55-2.5 1.63-3.29a7.17 7.17 0 014.32-1.19c1.77 0 3.2.4 4.3 1.2 1.1.8 1.81 1.93 2.13 3.38l-2.37.61c-.2-1.13-.65-1.93-1.37-2.39a4.99 4.99 0 00-2.69-.68 4.7 4.7 0 00-2.53.6c-.62.39-.93.97-.93 1.73 0 .75.3 1.3.88 1.65a6.8 6.8 0 002.35.78l1.32.23c1.1.2 2.1.46 3 .78.88.34 1.58.81 2.1 1.43.52.62.78 1.43.78 2.43 0 1.54-.57 2.72-1.7 3.55-1.15.84-2.68 1.25-4.6 1.25z" style="white-space:pre" fill="#333"/>
</svg>
